<?xml version="1.0" encoding="UTF-8" standalone="no"?>
<!-- Created with Inkscape (http://www.inkscape.org/) -->

<svg
   version="1.1"
   id="svg1"
   width="485.99194"
   height="769.32935"
   viewBox="0 0 485.99194 769.32935"
   xmlns="http://www.w3.org/2000/svg"
   xmlns:svg="http://www.w3.org/2000/svg">
  <defs
     id="defs1" />
  <g
     id="g1"
     transform="translate(-594.50807,-42)">
    <path
       style="fill:none;stroke:#848078"
       d="M 1080,42 V 80 M 856,237 c -17.41718,-4.86963 -8.22852,-17.13013 -10.21204,-29 -1.38635,-8.29639 -8.39141,-13.2041 -8.40484,-22 -0.0294,-19.22906 22.66437,-55.36145 40.62597,-61.93298 C 922.41785,107.81934 966.17065,155.74609 965.98724,197 965.88831,219.26038 955.61157,231.76477 942,247 M 896,140 c -1.85358,5.26855 -5.35602,19.06818 -9.73022,22.65631 -12.95191,10.62445 -26.13056,8.66998 -33.04017,28.34369 -5.97174,17.0033 4.00776,25.54327 6.77039,41 m 35,-85 -1,17 m 2,3 c 12.78424,0.87488 35.22546,11.19977 29,26 -11.49585,-4.60254 -21.04614,0.58093 -27,11 l 2,-5 m 29,-15 c 16.68121,14.24103 15.5191,34.14465 8.62634,54 -2.07361,5.97327 -9.97815,15.68396 -8.62634,21 m -66,-63 c 6.96741,-3.90558 11.36292,-3.23303 19,-2 m 43,0 c -2.92053,5.16571 -4.12238,20.37927 -12,10 h 9 m -51,0 h 8 l -14,2 m 33,-2 v 6 m 26,0 c 22.68079,-6.89447 3.09369,35.26019 -3,49 -5.86792,-0.26141 -8.74585,2.98615 -12,7 l 12,-6 m -21,-42 c -0.16168,5.06927 -0.81281,7.4425 -4,10 m -3,14 c 6.29687,1.80273 9.47815,3.3031 15,4 m -11,-3 -8,3 m 14,0 c -2.76782,1.91699 -4.64807,3.323 -10,4 m 29,6 -2,2 m -55,0 c -5.52722,27.83167 -57.28827,37.987 -72,56 6.27777,0.22382 13.52509,-4.34323 18.92419,2.35303 C 821.93732,328.77176 818.26324,352.02924 814,366 M 923,258 c 4.79626,13.14807 -5.21313,35.06909 6.09705,50.95859 10.03253,14.09451 29.54248,8.96661 41.40026,19.8454 C 988.08112,344.93607 985.65594,402.20798 982,424 M 918,265 c 1.11639,4.34363 1.78473,6.82819 4,11 m -13,-10 -22,5 c 7.71204,5.78949 22.96155,6.78595 27.57458,17.11945 C 917.60748,294.91321 907.86456,310.92551 905,317 l -1,-5 m -23,-43 5,2 m 1,3 h 1 m -81,32 c 17.35559,1.64072 41.87323,38.02832 52.13141,52 17.29059,23.5498 39.17023,50.02945 65.86859,63.13965 10.43146,5.12234 20.11603,3.17267 31,3.86035 m -163,-110 -5,5 m -2,-2 -1,2 m -4,6 -1,1 m 52,1 c 2.26379,17.81924 19.80798,39.93872 29,55 m -84,-53 c -20.80591,27.63425 -22.25897,55.09698 -36.83746,84 -9.92969,19.68634 -25.84626,35.0289 -38.029,53 -19.08807,28.15732 -33.05303,55.25378 -54.71325,81.04126 C 636.26208,561.32556 632.95715,595.33392 627,608 c 8.19238,1.45233 3.6983,48.64954 10.75098,46.67053 C 641.29993,653.67474 643.42065,619.508 645,613 M 798,413 c -5.50299,17.96347 -5.11688,49.7854 -14.38751,64.74261 C 775.75793,490.41513 731.07874,517.04449 719,517 c 9.38837,-12.1041 30.20758,-33.09921 38.91235,-49 16.99591,-31.04587 20.69562,-75.50204 49.08765,-100 4.40631,7.49472 2.03522,14.37991 0,22 m 57,-19 -3,10 m 88,24 c 1.57336,-12.01233 6.1994,-25.47955 15,-34 6.8974,14.44772 9,37.6781 9,52 -25.45691,-2.89276 -56.24683,-32.48233 -84,-31 m 78,-10 c -2.36963,7.57272 -3.75708,17.04416 -2,26 m -94,-18 15,24 6,-8 m -89,-11 c -11.64697,22.64447 -23.72546,48.03543 -41,67 m 211,-39 c 5.81537,5.29517 10.53931,9.42981 16,1 m -92,36 c -14.62817,-11.78308 -33.08093,-12.20499 -47,-23 7.85974,-1.76117 35.23724,-13.25485 41.00146,-11.54529 16.38929,4.86072 18.51386,22.29511 30.7146,30.58435 C 926.17194,459.06644 935.17523,454.04108 940,453 m 52,-20 c -1.25336,10.7366 -2.4696,22.19012 -17,20 m -8,2 c -2.12445,14.01294 -9.39252,23.76541 -17.9259,35 -14.94629,19.67746 -26.77301,48.03333 -46.0741,63 21.58057,7.51263 25.80322,31.87683 45,43 M 831,460 c 18.55688,12.62704 55.68323,23.04318 53.74261,52.99573 -0.60394,9.32116 -15.72558,11.71728 -14.97363,19.92975 C 870.4942,540.84631 882.12531,541.94141 888,542 M 681,674 c 2.94598,-10.28333 -11.70178,-32.44159 -9.70111,-45 1.50507,-9.44775 12.45013,-16.20972 15.04394,-25 4.69349,-15.90619 2.49201,-37.18176 8.80457,-54 4.1864,-11.15356 15.27332,-21.08502 18.8526,-29 -10.43866,2.5498 -32.7226,26.81787 -40,36 -1.68671,-10.14374 8.71509,-23.52246 15.63977,-31.99091 C 708.11841,502.41107 736.44623,480.70645 759,462 m 218,2 c -1.6994,16.26257 -5.08447,38.57019 -12.88037,53 C 947.82227,547.16553 919.00867,562.70618 953,594 m -196,-129 2,2 m -40,50 -5,4 m 253,16 c 8.12512,48.82019 27.15662,90.80109 54.4418,132 14.2005,21.44202 31.4631,37.41895 43.5582,61 M 825,542 c 30.59692,35.24902 -24.3764,27.25977 -37,52 l 42,-14 m 83,-29 c 7.61182,1.00574 11.99115,6.01862 17,11 m -107,63 h -4 v -1 c 18.0871,-1.54626 34.64435,-25.37646 48.01904,-36.68872 2.62073,-2.21661 16.0553,-9.49127 13.45044,-13.7005 C 878.00061,569.62128 868.88599,573.26636 865,573 c 9.14325,-11.18182 24.3822,-17.6048 38,-21 m -229,5 c -2.3493,14.00366 -0.40588,39.37268 -2,54 m 248,-48 c -19.08246,15.91693 -26.27844,25.37805 -52,30 m -4,-19 1,1 m 0,1 -22,20 c -20.93823,-7.37256 -56.89307,27.27808 -24,31 m 0,1 c -12.2157,7.72693 -29.27893,1.2417 -21.55707,-15 8.68952,-18.2771 36.67475,-35.62439 56.55707,-29 m -66,10 -2,4 4,-3 m 53,2 -21,25 m 63,-19 c 13.16913,5.81927 23.59827,-4.58704 37,-4 m -137,0 -4,6 m -124,-3 c -10.64435,13.32996 -11.68842,28.70288 -14,45 m 274,-42 c 27.75446,11.37402 57.51514,15.09296 81,36 m -337,-35 1,27 m -36,-23 -2,10 m 114,0 c -0.36218,21.50403 -20.40363,47.59839 -13,67 13.28009,-8.41248 13.36963,-45.93097 17,-61 m -58,45 c 7.04993,5.86505 16.89075,19.49939 16.2959,30 -0.63715,11.24731 -6.17566,22.23975 -6.39893,33 -0.30047,14.47821 6.01685,28.98645 2.06879,44 C 693.0896,788.93732 683.07574,798.0257 680,810 M 937,688 c 12.54395,2.37885 29.70099,15.02399 36.05511,26.00049 3.2851,5.67493 9.44983,23.21185 16.23169,24.87774 5.23407,1.28571 10.09266,-9.50994 12.7132,-12.87823 7.2805,8.98376 12.2399,22.37164 16,32 6.4313,-14.13208 -1.6825,-41.29846 0.3599,-58 0.5698,-4.65973 5.9393,-24.0285 11.6401,-12 m -398,8 c -2.92926,19.32239 -17.30286,30.40802 -28.10468,46 -5.38488,7.77289 -5.90087,19.40765 -6.89532,28 m 440,-58 v 1 m -107,98 c -2.93738,-29.32068 -6.34833,-67.67188 0,-96 14.07599,4.56165 16.4447,27.58331 19,41 m 91,-30 c 5.6284,21.91284 25.7542,65.86487 9,85 M 655,756 c 6.35309,4.51807 -0.009,41.9989 0,53 m 231,-51 c 1.37842,11.56824 7.89117,39.2002 11,52 m 53,-52 1,4 m -66,2 c -3.28003,10.98322 -8.25983,27.29303 -5,39 m 75,-32 9,38 m -367,-10 -2,11 m 284,-8 -3,8"
       id="path2" />
  </g>
</svg>
